<svg xmlns="http://www.w3.org/2000/svg" viewBox="0 0 596.21 190.01"><defs><style>.cls-1{fill:#fff;}</style></defs><g id="Layer_2" data-name="Layer 2"><g id="Layer_1-2" data-name="Layer 1"><path class="cls-1" d="M201.82,24a1.49,1.49,0,0,1,.61.9,1.61,1.61,0,0,1-.15,1.09q-.33.6-5.72,10.67T183.14,61.58q-8.05,14.88-16.3,29.92t-14.3,25.62a1.55,1.55,0,0,1-.92.71,1.42,1.42,0,0,1-1.16-.17,1.53,1.53,0,0,1-.71-.91,1.56,1.56,0,0,1,.14-1.17q9.17-16,21.82-39.32T193,36.82Q183,48.64,169.38,65.2t-27,32.86Q129,114.35,120,125.37t-9.57,11.74a1.52,1.52,0,0,1-.87.52,1.62,1.62,0,0,1-1-.13,1.54,1.54,0,0,1-.69-.76,1.41,1.41,0,0,1-.06-1L134.46,38.9q-8.84,13.44-24.83,37.89T78.07,125.18Q62.5,149.14,54.91,161q-1.42,3-2.74,5.91a1.62,1.62,0,0,1-1.39.87,1.39,1.39,0,0,1-.63-.15.09.09,0,0,1-.06,0l0,0H50a1.64,1.64,0,0,1-.73-.18,1.6,1.6,0,0,1-.72-.92,1.48,1.48,0,0,1,.12-1.16q.66-1.17,3.56-5.76,8.61-18,19.32-39.27,8.78-17.55,17.07-34.61T103.2,54.15q4.45-10.18,7.85-19.83a104.71,104.71,0,0,0,4.84-19.56,22.19,22.19,0,0,0,.22-3.45,14.57,14.57,0,0,0-.69-4.51,5.4,5.4,0,0,0-2.73-3.29,8.11,8.11,0,0,0-4.91-.18A33.63,33.63,0,0,0,97.52,7.45,79.88,79.88,0,0,0,88.22,14,271.78,271.78,0,0,0,57.38,42.76a462.94,462.94,0,0,0-32.25,39.4q-6.45,8.46-12.25,17.78a97,97,0,0,0-9.42,19.83,7.79,7.79,0,0,0-.41,2.7c0,.86.27,1.38.71,1.58a1.48,1.48,0,0,1,.89.76A1.62,1.62,0,0,1,4.72,126a1.47,1.47,0,0,1-.75.88,1.59,1.59,0,0,1-1.18.09,4,4,0,0,1-2.65-3.21,10.06,10.06,0,0,1,.42-4.93,99.13,99.13,0,0,1,9.63-20.35q5.93-9.52,12.5-18.14A472.49,472.49,0,0,1,55.18,40.65,274,274,0,0,1,86.32,11.59a84.56,84.56,0,0,1,9.82-6.87,36.24,36.24,0,0,1,11-4.37A17.07,17.07,0,0,1,110.36,0,8.71,8.71,0,0,1,114,.74q6.3,3.19,4.91,14.44a107.16,107.16,0,0,1-4.91,20q-3.43,9.84-8,20.18Q99.7,69.9,91.38,87T74.26,121.67q-4.12,8.33-8.08,16.25,13.11-20.25,29-44.63t28.06-42.92q12.15-18.55,14-21.3a1.53,1.53,0,0,1,2.65.2,1.44,1.44,0,0,1,.09,1L112.6,129.57q9-11.05,26.74-32.69t35.12-42.61q17.39-21,25.35-30.05a1.58,1.58,0,0,1,.94-.5A1.54,1.54,0,0,1,201.82,24Z"/><path class="cls-1" d="M201.73,97.71a1.29,1.29,0,0,1,.88-.47,1.22,1.22,0,0,1,.93.32,1.21,1.21,0,0,1,.45.87,1.36,1.36,0,0,1-.3.94,28.3,28.3,0,0,1-6.76,5.75,19.23,19.23,0,0,1-7.06,2.7,7.53,7.53,0,0,1-5.62-1.07A4.83,4.83,0,0,1,183,105.5a5.16,5.16,0,0,1-.78-2.12,31.12,31.12,0,0,1-3.07,3,8.23,8.23,0,0,1-3.23,1.87,4.83,4.83,0,0,1-1.05.12,3.91,3.91,0,0,1-3.08-1.42q-1.5-2-.51-5.51a18.08,18.08,0,0,1,3.62-6.5,15.68,15.68,0,0,1,4.94-4.08,6.49,6.49,0,0,1,4.52-.67,4.39,4.39,0,0,1,2.87,2.57,1.21,1.21,0,0,1,.57.67,1.33,1.33,0,0,1,0,.92A32.66,32.66,0,0,1,185.46,99q-1.58,4.21.3,5.69c1.55,1,3.88.87,7-.36A24,24,0,0,0,201.73,97.71Zm-18.59.18A24.46,24.46,0,0,1,185,94.06a1.89,1.89,0,0,0-.48-.89,1.72,1.72,0,0,0-.81-.49,2.77,2.77,0,0,0-.6-.06,5.39,5.39,0,0,0-2.14.57,13.11,13.11,0,0,0-4.16,3.5,15.18,15.18,0,0,0-3,5.48c-.42,1.51-.4,2.57.06,3.2a1.19,1.19,0,0,0,.71.43,1.53,1.53,0,0,0,.77,0,6,6,0,0,0,2.2-1.33A28.12,28.12,0,0,0,183.14,97.89Z"/><path class="cls-1" d="M222.2,98a1.28,1.28,0,0,1,.84-.5,1.35,1.35,0,0,1,1,.23,1.28,1.28,0,0,1,.5.84,1.35,1.35,0,0,1-.23,1,23.76,23.76,0,0,1-6.84,6.31,12.33,12.33,0,0,1-5.16,1.86,7.15,7.15,0,0,1-1.38,0,3.71,3.71,0,0,1-1.48-.47,3.58,3.58,0,0,1-.92-.84,3,3,0,0,1-.57-1.72,6,6,0,0,1,.77-2.86L212,95.15a53.19,53.19,0,0,0-11.6,12.57,1.29,1.29,0,0,1-1.09.6,1,1,0,0,1-.24,0,1.23,1.23,0,0,1-1-1,2.74,2.74,0,0,1,.21-.88l-.06,0a.09.09,0,0,0,0-.06l.06-.06c.52-1.57,1.47-4.07,2.86-7.52s2.88-7.07,4.49-10.87,3-7,4.16-9.67q13.08-29.31,19.65-33.25a4.12,4.12,0,0,1,2.63-.68,3.06,3.06,0,0,1,1.56.68A3.9,3.9,0,0,1,235,48.28c-.12,2.19-1.08,5-2.89,8.54A114,114,0,0,1,225.41,68q-4,5.94-8,11.26T210.69,88q-2.74,3.39-2.93,3.54a1.35,1.35,0,0,1-1,.24c-1.17,2.82-2.21,5.37-3.14,7.66a63.78,63.78,0,0,1,11.24-9.53,1.26,1.26,0,0,1,.79-.21,1.45,1.45,0,0,1,.78.3,1.28,1.28,0,0,1,.27,1.54L211,103a4.59,4.59,0,0,0-.26.58,3.23,3.23,0,0,0-.21.84.59.59,0,0,0,.2.6,1.49,1.49,0,0,0,.73.16h.65a10.61,10.61,0,0,0,4-1.53A20.4,20.4,0,0,0,222.2,98Zm9.19-51.15q-2.49.9-6.24,6.9a158.26,158.26,0,0,0-7.89,14.59q-4.17,8.59-7.9,17.27,2.83-3.56,6.75-8.84t7.7-11a109,109,0,0,0,6.24-10.51q2.46-4.8,2.37-7.4a2,2,0,0,0-.11-.52,1.09,1.09,0,0,0-.15-.29l-.1-.12a.58.58,0,0,0-.15-.11.51.51,0,0,0-.22,0A.8.8,0,0,0,231.39,46.86Z"/><path class="cls-1" d="M227.38,106a16.12,16.12,0,0,0,7.72-1.55,27.43,27.43,0,0,0,6.81-4,1.24,1.24,0,0,1,.94-.31,1.3,1.3,0,0,1,.87.43,1.25,1.25,0,0,1,.32.94,1.31,1.31,0,0,1-.44.87,24.2,24.2,0,0,1-4.2,2.85,35,35,0,0,1-5.5,2.43,17.24,17.24,0,0,1-5.52,1,9.48,9.48,0,0,1-1.33-.09,5.66,5.66,0,0,1-4.19-2.44q-2.4-3.7,2.41-12.51A1.27,1.27,0,0,1,226,93a1.28,1.28,0,0,1,1.59.88,1.22,1.22,0,0,1-.12,1,31.58,31.58,0,0,0-2.39,5.39,8.9,8.9,0,0,0-.49,3.09,2.83,2.83,0,0,0,.37,1.37A3.08,3.08,0,0,0,227.38,106Zm1.48-17.79a1.32,1.32,0,0,1,.94.4,1.27,1.27,0,0,1,.39.93,1.33,1.33,0,0,1-1.33,1.33,1.27,1.27,0,0,1-.93-.39,1.32,1.32,0,0,1-.4-.94,1.37,1.37,0,0,1,1.33-1.33Z"/><path class="cls-1" d="M256.2,88.79a5.86,5.86,0,0,1,4.25,3.64,9.29,9.29,0,0,1,.3,5.19,14,14,0,0,1-3.16,6.4,14.33,14.33,0,0,1-5.88,4.09q-3.74,1.26-6.3-.3a6.2,6.2,0,0,1-2.56-3.8l-.06.12-.06.12c-.34.6-.7,1.24-1.06,1.9l-.93,1.73a9,9,0,0,0-.45.92,1.46,1.46,0,0,1-1.18.76,1.61,1.61,0,0,1-.51-.09,1.31,1.31,0,0,1-.68-.67,1.27,1.27,0,0,1,0-1,.36.36,0,0,1,0-.11,2.58,2.58,0,0,1,.12-.24l.26-.48.44-.83.69-1.3c.28-.52.62-1.14,1-1.87l.18-.33,1.1-2c.31-.57.49-.92.55-1,.27-.62.56-1.24.88-1.84A42.55,42.55,0,0,1,245.41,92a.94.94,0,0,1,.12-.3c.24-.52.49-1,.75-1.57q2.47-5,5.67-12,4.63-10.38,8.62-18.27a86.84,86.84,0,0,1,7.37-12.45q3.39-4.55,6.35-4.82a3.31,3.31,0,0,1,3.31,1.84q2.06,4.58-5.17,16.62T250,90.51a15.48,15.48,0,0,1,1.69-.94A7.5,7.5,0,0,1,256.2,88.79Zm2.05,8.32A6.46,6.46,0,0,0,258,93.4a3.22,3.22,0,0,0-2.29-2.08,5.18,5.18,0,0,0-3,.54,17.26,17.26,0,0,0-7.2,6.91q-.12.51-.24,1a7.87,7.87,0,0,0-.18,1.76,7.59,7.59,0,0,0,.21,1.83,3.55,3.55,0,0,0,1.45,2.29,3.46,3.46,0,0,0,2.14.45,7.18,7.18,0,0,0,1.89-.42A11.61,11.61,0,0,0,258.25,97.11Zm-4-18q-.06.15-.15.33c-.76,1.71-1.52,3.35-2.26,4.92q5.7-6.69,9.69-12T268.17,63q2.61-4,4.13-7A41.62,41.62,0,0,0,274.5,51a17.8,17.8,0,0,0,.86-3.21,6.57,6.57,0,0,0,.07-1.76,1.53,1.53,0,0,0-.15-.59.63.63,0,0,0-.21-.3.83.83,0,0,0-.51-.12h-.09q-1.85.24-4.39,3.68a71.86,71.86,0,0,0-5.38,8.72q-2.83,5.29-5.53,11C257.37,72.31,255.74,75.85,254.27,79.08Z"/><path class="cls-1" d="M286.13,98.19a1.36,1.36,0,0,1,.59.79,1.3,1.3,0,0,1-.11,1,22.4,22.4,0,0,1-5.38,6.41,10,10,0,0,1-5.83,2.51h0a3.57,3.57,0,0,1-3.26-1.78q-1.08-1.89-.24-5.33a35.84,35.84,0,0,1-5.59,5.17q-2.67,1.9-4.53,1.61a2.38,2.38,0,0,1-1.84-1.51c-.43-1.36-.15-3.18.83-5.44a46.06,46.06,0,0,1,3.3-6.33c1.22-2,2-3.19,2.41-3.69a1.22,1.22,0,0,1,.81-.51,1.31,1.31,0,0,1,1,.21,1.23,1.23,0,0,1,.52.83,1.31,1.31,0,0,1-.22,1,60.91,60.91,0,0,0-4.78,8.11c-1.24,2.57-1.72,4.22-1.46,4.94q1.14.15,5-3.35a65,65,0,0,0,9.05-11,1.26,1.26,0,0,1,.8-.56,1.21,1.21,0,0,1,.95.2,1.15,1.15,0,0,1,.56.77,1.37,1.37,0,0,1-.14.95,49.07,49.07,0,0,0-3,5.88,21,21,0,0,0-1.26,3.81,7,7,0,0,0-.16,2.14,1.88,1.88,0,0,0,.25.86.84.84,0,0,0,.32.36,1.32,1.32,0,0,0,.71.15h0a7.88,7.88,0,0,0,4.33-2,19.7,19.7,0,0,0,4.65-5.6,1.25,1.25,0,0,1,.77-.58A1.34,1.34,0,0,1,286.13,98.19Z"/><path class="cls-1" d="M308.13,99.79a30,30,0,0,1-4.35,4.27,35.4,35.4,0,0,1-6.23,4.12,15.61,15.61,0,0,1-6.48,1.92h-.18a5.82,5.82,0,0,1-4.55-1.93q-4.06-4.74.69-18.21a105.72,105.72,0,0,1,7.47-16.09,101,101,0,0,1,9.61-14.4q4.93-6,8.36-6.88a2.19,2.19,0,0,1,2.45,1.29q1.11,2.5-1.39,9.5a71.81,71.81,0,0,1-8.94,16.2A101.36,101.36,0,0,1,287.43,98q-1.12,6.15.84,8.5a3.37,3.37,0,0,0,2.74,1,13.26,13.26,0,0,0,5.38-1.66,34.81,34.81,0,0,0,5.58-3.66,27.69,27.69,0,0,0,4.15-4,1.32,1.32,0,0,1,.87-.48,1.22,1.22,0,0,1,.93.27,1.26,1.26,0,0,1,.49.84A1.2,1.2,0,0,1,308.13,99.79Zm-18.68-9c-.37,1-.68,2-.94,2.89A97.06,97.06,0,0,0,303.21,77,73.89,73.89,0,0,0,311,62.83c1.5-3.95,2.08-6.51,1.72-7.65q-2.62.87-7,6.31a102,102,0,0,0-8.83,13.31A105.7,105.7,0,0,0,289.45,90.81Z"/><path class="cls-1" d="M495.23,94.15a1.54,1.54,0,0,1,1.08.47,1.49,1.49,0,0,1,.43,1.1,1.47,1.47,0,0,1-.47,1,1.68,1.68,0,0,1-1.1.44Q487,97,478.23,97q-3.94,9.56-7.57,18.35,2.56,22.69-23,55.83a1.53,1.53,0,0,1-1.2.6,1.47,1.47,0,0,1-.75-.21,1.49,1.49,0,0,1-.7-.83,1.52,1.52,0,0,1,0-1.07s0,0,0-.06q.57-1.41,6.68-16.28L467.5,115a29.28,29.28,0,0,0-4.13-11.63,33.49,33.49,0,0,0-5.13-6.42q-13.53,0-27.12.12c-.79,0-1.56,0-2.33,0l-27.18.15Q393.23,116.4,386.05,133T370.5,169.09l-8.62,20a1.56,1.56,0,0,1-1.39.94,1.61,1.61,0,0,1-.6-.12,1.54,1.54,0,0,1-.83-.85,1.49,1.49,0,0,1,0-1.17l8.62-20q15.36-35.74,30.56-70.65-24.6.09-45.79-.58c-.18,0-1.6-.09-4.28-.27s-6-.46-9.94-.86-8-.89-12-1.52a75.63,75.63,0,0,1-10.44-2.26c-2.93-.88-4.68-1.91-5.26-3.07a2.85,2.85,0,0,1-.05-2.2,6,6,0,0,1,2.58-2.75q4.13-2.58,14.19-5a197.5,197.5,0,0,1,24.18-3.86,278.72,278.72,0,0,1,30.41-1.43A243,243,0,0,1,408,75q9.31-21.21,23-52.17a2.22,2.22,0,0,1,2.95.84q-13.5,30.66-22.76,51.75a151.31,151.31,0,0,1,17.79,3.46,96.51,96.51,0,0,1,16.71,5.92,54.86,54.86,0,0,1,13.79,9q8.54,0,16.76,0,19-46,37.35-90.22a2.22,2.22,0,0,1,3,.82Q498.3,48.19,479.46,93.91,487.61,94,495.23,94.15Zm-95.61,0q3.31-7.65,7.11-16.3a248.32,248.32,0,0,0-27.52-1.36q-13,.06-24.75,1.19T334,80.5a109.8,109.8,0,0,0-12.59,3A33.87,33.87,0,0,0,315.14,86c-1.19.73-1.79,1.24-1.79,1.54.9.87,3.73,1.73,8.47,2.61s10,1.63,15.84,2.26,10.79,1,14.93,1.19Q374.3,94.27,399.62,94.18ZM428.76,94h2.84q11.59-.09,23.21-.12a64.67,64.67,0,0,0-19.87-10.17,133.66,133.66,0,0,0-25-5.44q-3.72,8.4-7,15.88Q415.83,94.12,428.76,94Zm24,64.87q13.71-20.62,14.92-36.32Q458.22,145.58,452.76,158.87Zm16.82-49q2-5,4.19-10.19c.38-.91.76-1.83,1.14-2.77q-6.18,0-12.51,0A33.54,33.54,0,0,1,469.58,109.89Z"/><path class="cls-1" d="M526.46,97.71a1.27,1.27,0,0,1,.87-.47,1.34,1.34,0,0,1,1.39,1.19,1.32,1.32,0,0,1-.31.94,28.3,28.3,0,0,1-6.76,5.75,19.16,19.16,0,0,1-7.06,2.7,7.53,7.53,0,0,1-5.62-1.07,4.65,4.65,0,0,1-1.2-1.25,5,5,0,0,1-.79-2.12,31.12,31.12,0,0,1-3.07,3,8.23,8.23,0,0,1-3.23,1.87,4.83,4.83,0,0,1-1.05.12,3.91,3.91,0,0,1-3.08-1.42q-1.5-2-.51-5.51a18.23,18.23,0,0,1,3.62-6.5,15.79,15.79,0,0,1,4.94-4.08,6.5,6.5,0,0,1,4.52-.67A4.39,4.39,0,0,1,512,92.77a1.21,1.21,0,0,1,.57.67,1.33,1.33,0,0,1,0,.92A31.65,31.65,0,0,1,510.18,99q-1.57,4.21.3,5.69c1.55,1,3.88.87,7-.36A24.08,24.08,0,0,0,526.46,97.71Zm-18.6.18a23.73,23.73,0,0,1,1.87-3.83,1.83,1.83,0,0,0-.49-.89,1.72,1.72,0,0,0-.81-.49,2.77,2.77,0,0,0-.6-.06,5.39,5.39,0,0,0-2.14.57,13.11,13.11,0,0,0-4.16,3.5,15.34,15.34,0,0,0-3,5.48c-.42,1.51-.4,2.57.06,3.2a1.19,1.19,0,0,0,.71.43,1.53,1.53,0,0,0,.77,0,6,6,0,0,0,2.2-1.33A28.12,28.12,0,0,0,507.86,97.89Z"/><path class="cls-1" d="M554.13,96.69a1.28,1.28,0,0,1,1,.25,1.32,1.32,0,0,1,.49.86,1.21,1.21,0,0,1-.25.93,1.34,1.34,0,0,1-.86.49,21.45,21.45,0,0,0-10.39,4.5,41.22,41.22,0,0,0-8.33,8.94h1.66a.62.62,0,0,1,.63.63.65.65,0,0,1-.18.46.61.61,0,0,1-.45.18h-2.54c-.68,1-1.33,2.06-2,3.1q-4.83,10.95-9.56,22.19c-.18.44-.32.76-.42,1a1.37,1.37,0,0,1-.29.43,1.16,1.16,0,0,1-.37.21,1.46,1.46,0,0,1-.49.09,1.7,1.7,0,0,1-.54-.09,1.32,1.32,0,0,1-.72-1.38c0-.14.38-1.41,1.14-3.8s1.91-5.41,3.44-9a93.36,93.36,0,0,1,5.76-11.34q.18-.39.33-.75t.27-.6h-4.13a.64.64,0,0,1-.44-.18.62.62,0,0,1-.19-.46.58.58,0,0,1,.19-.45.64.64,0,0,1,.44-.18H532q1.28-2.84,2.47-5.55a6.1,6.1,0,0,1-4.85,0,6.21,6.21,0,0,1-3.29-4.31,9.71,9.71,0,0,1,.34-5,15.14,15.14,0,0,1,6.66-8.47,10.36,10.36,0,0,1,8-1.45,7.34,7.34,0,0,1,3.81,2.54,6,6,0,0,1,1.34,4.06,1.25,1.25,0,0,1-.41.89,1.3,1.3,0,0,1-.92.35,1.31,1.31,0,0,1-1.23-1.36,3.46,3.46,0,0,0-1-2.54,5.09,5.09,0,0,0-2.32-1.47,7.93,7.93,0,0,0-6,1.18,12.63,12.63,0,0,0-5.51,7,7.08,7.08,0,0,0-.3,3.71,3.65,3.65,0,0,0,1.86,2.56,3.7,3.7,0,0,0,3.14-.21,8.32,8.32,0,0,0,2.8-2.47,1.58,1.58,0,0,0,.15-.24c1-2.25,2-4.35,2.84-6.3a1.25,1.25,0,0,1,.65-.65,1.31,1.31,0,0,1,.94,0,1.34,1.34,0,0,1,.7.58,1.32,1.32,0,0,1,.15.92,19.13,19.13,0,0,1-3,6.79c-.42.9-.84,1.82-1.26,2.77a34.94,34.94,0,0,1,7.47-6.15A22.55,22.55,0,0,1,554.13,96.69Z"/><path class="cls-1" d="M577.85,98.19a1.35,1.35,0,0,1,.58.79,1.3,1.3,0,0,1-.1,1,22.56,22.56,0,0,1-5.38,6.41,10,10,0,0,1-5.83,2.51h0a3.56,3.56,0,0,1-3.26-1.78q-1.08-1.89-.24-5.33a35.84,35.84,0,0,1-5.59,5.17q-2.67,1.9-4.54,1.61a2.39,2.39,0,0,1-1.84-1.51c-.42-1.36-.14-3.18.83-5.44a48.38,48.38,0,0,1,3.3-6.33q1.85-2.94,2.41-3.69a1.24,1.24,0,0,1,.82-.51,1.28,1.28,0,0,1,1,.21,1.25,1.25,0,0,1,.53.83,1.32,1.32,0,0,1-.23,1,59.71,59.71,0,0,0-4.77,8.11q-1.86,3.85-1.47,4.94,1.15.15,5-3.35a65.42,65.42,0,0,0,9.06-11,1.26,1.26,0,0,1,.8-.56,1.21,1.21,0,0,1,1,.2,1.15,1.15,0,0,1,.56.77,1.37,1.37,0,0,1-.14.95,47.9,47.9,0,0,0-3,5.88,20.81,20.81,0,0,0-1.25,3.81,6.71,6.71,0,0,0-.16,2.14,1.76,1.76,0,0,0,.25.86.84.84,0,0,0,.32.36,1.29,1.29,0,0,0,.71.15h0a7.86,7.86,0,0,0,4.32-2,19.73,19.73,0,0,0,4.66-5.6,1.25,1.25,0,0,1,.77-.58A1.34,1.34,0,0,1,577.85,98.19Z"/><path class="cls-1" d="M595.93,100.33a25.67,25.67,0,0,1-4.46,4.46,19.58,19.58,0,0,1-4.16,2.48,15.64,15.64,0,0,1-5.79,1.29h-.27q-4.85-.24-6.15-4.19a8.11,8.11,0,0,1,.61-5.76,13.32,13.32,0,0,1,4.43-5.21,9.18,9.18,0,0,1,4-1.6,4.58,4.58,0,0,1,2.45.36,2.39,2.39,0,0,1,1.4,1.78,3.86,3.86,0,0,1-1.52,3.74A14.19,14.19,0,0,1,582,100a46.8,46.8,0,0,1-4.55,1.33,4.47,4.47,0,0,0,.06,2.26,3,3,0,0,0,1.58,1.88,5.34,5.34,0,0,0,2.21.5,11.49,11.49,0,0,0,2.75-.35,14.92,14.92,0,0,0,4.49-2,21.51,21.51,0,0,0,5.33-5,1.34,1.34,0,0,1,.88-.48,1.22,1.22,0,0,1,.93.27,1.35,1.35,0,0,1,.48.86A1.31,1.31,0,0,1,595.93,100.33Zm-14.32-4.85a11.59,11.59,0,0,0-2.83,2.86,24,24,0,0,0,4.4-1.6,5.69,5.69,0,0,0,1.89-1.34,1.32,1.32,0,0,0,.37-.92,1.45,1.45,0,0,0-.75-.15l-.27,0A6.35,6.35,0,0,0,581.61,95.48Z"/></g></g></svg>