<svg xmlns="http://www.w3.org/2000/svg" viewBox="0 0 2000 1632.01"><defs><style>.cls-1{fill:#fff;}</style></defs><g id="Layer_2" data-name="Layer 2"><g id="Layer_1-2" data-name="Layer 1"><path class="cls-1" d="M294.38,924.5V1524H401.59V924.5Zm1306.8,0V1524h107.21V924.5Zm0-816.51L1170.36,745.48l-24.43,36.17-72.11,106.69-24.43,36.16-47,69.51L955.26,924.5l-24.52-36.16L858.39,781.65l-24.52-36.17L401.59,108H294.38V745.48H401.59V310.27L694.48,745.48l24.34,36.17,71.81,106.69L815,924.5l161.14,239.44h50.56L1187.81,924.5l24.34-36.16,71.79-106.69,24.34-36.17,292.9-435.21V745.48h107.21V108Z"/><rect class="cls-1" x="1811.93" y="53.8" width="106.69" height="1524.41"/><rect class="cls-1" x="81.37" y="53.8" width="106.69" height="1524.41"/><polygon class="cls-1" points="675.23 781.65 747.03 888.34 188.06 888.34 188.06 781.65 675.23 781.65"/><polygon class="cls-1" points="1102.28 781.65 1043.85 868.08 1030.16 888.34 974.43 888.34 902.08 781.65 1102.28 781.65"/><polygon class="cls-1" points="1811.93 781.65 1811.93 888.34 1255.73 888.34 1313.94 801.84 1327.54 781.65 1811.93 781.65"/><rect class="cls-1" y="1578.66" width="271.25" height="53.35"/><rect class="cls-1" width="271.25" height="53.35"/><rect class="cls-1" x="1728.75" width="271.25" height="53.35"/><rect class="cls-1" x="1728.75" y="1578.66" width="271.25" height="53.35"/></g></g></svg>